{"title":"Red.Dirt.Rising.2011.720p.BRRip.x264.Feel-Free","uid":6124327,"size":1790728098,"categoryP":"video","categoryS":"hd___movies","magnet":"?xt=urn:btih:aa788fc417809eec53d63e87f12262427fee06f0&amp;dn=Red.Dirt.Rising.2011.720p.BRRip.x264.Feel-Free&amp;tr=udp%3A%2F%2Ftracker.openbittorrent.com%3A80&amp;tr=udp%3A%2F%2Fopen.demonii.com%3A1337&amp;tr=udp%3A%2F%2Ftracker.coppersurfer.tk%3A6969&amp;tr=udp%3A%2F%2Fexodus.desync.com%3A6969","seeders":0,"leechers":1,"uploader":"SaM","files":9,"time":1295876918,"description":"Genre:Drama\nLanguage:English\nIMDb:http://www.imdb.com/title/tt1103274/\nSource:BluRay.x264-SEMTE\n\n\nFormat : Matroska\nFile size : 1.66 GiB\nDuration : 1h 33mn\nOverall bit rate : 2 561 Kbps\n\n\nVideo\nFormat settings, CABAC : Yes\nFormat settings, ReFrames : 4 frames\nCodec ID : V_MPEG4/ISO/AVC\nDuration : 1h 33mn\nBit rate : 2 200 Kbps\nWidth : 1 280 pixels\nHeight : 544 pixels\nDisplay aspect ratio : 2.35:1\nFrame rate mode : Variable\nFrame rate : 23.976 fps\nColor space : YUV\nChroma subsampling : 4:2:0\nBit depth : 8 bits\nScan type : Progressive\nBits/(Pixel*Frame) : 0.132\nStream size : 1.38 GiB (83%)\nWriting library : x264\n\nAudio\nID : 2\nFormat : AC-3\nFormat/Info : Audio Coding 3\nMode extension : CM (complete main)\nCodec ID : A_AC3\nDuration : 1h 33mn\nBit rate mode : Constant\nBit rate : 384 Kbps\nChannel(s) : 6 channels\nChannel positions : Front: L C R, Side: L R, LFE\nSampling rate : 48.0 KHz\nBit depth : 16 bits\nVideo delay : -1mn 5s\nStream size : 256 MiB (15%)\nLanguage : English\n\n\n\nPlot:\nBased on a true story, this film shares with us a decade in the lives of Jimmie Lewallen and his wife\n &lt;a href=&quot;\nhttp://rapidhdd.com/images/343084vlcsnap-00001.png&quot; rel=&quot;nofollow&quot; target=&quot;_NEW&quot;&gt;\nhttp://rapidhdd.com/images/343084vlcsnap-00001.png&lt;/a&gt;\n &lt;a href=&quot;\nhttp://www.rapidhdd.com/images/115724vlcsnap-00002.png&quot; rel=&quot;nofollow&quot; target=&quot;_NEW&quot;&gt;\nhttp://www.rapidhdd.com/images/115724vlcsnap-00002.png&lt;/a&gt;\n &lt;a href=&quot;\nhttp://www.rapidhdd.com/images/749241vlcsnap-00003.png&quot; rel=&quot;nofollow&quot; target=&quot;_NEW&quot;&gt;\nhttp://www.rapidhdd.com/images/749241vlcsnap-00003.png&lt;/a&gt;\n &lt;a href=&quot;\nhttp://www.rapidhdd.com/images/376094vlcsnap-00004.png&quot; rel=&quot;nofollow&quot; target=&quot;_NEW&quot;&gt;\nhttp://www.rapidhdd.com/images/376094vlcsnap-00004.png&lt;/a&gt;\n &lt;a href=&quot;\nhttp://www.rapidhdd.com/images/533480vlcsnap-00005.png&quot; rel=&quot;nofollow&quot; target=&quot;_NEW&quot;&gt;\nhttp://www.rapidhdd.com/images/533480vlcsnap-00005.png&lt;/a&gt;\n\nGreets:\n\nINK,CRYS,IMAGINE,LKRG,FXG,3Li,FLAWL3SS,TA,iLLUSiON,ViSiON,LU,TheFalcon007,PrisM,Noir,WBZ,LAP,Rx,Kingdom,SAFCuk009+Fabreezy,HDLiTE,TWiZTED,ExtraTorrentRG.ELEKTRI4KA,MAGNAT,CM8\nAnd to all the other p2p grps past and present\n\n\n\n\nMake sure its a real Feel-Free release @ extratorrent","torrent":{"xt":"urn:btih:aa788fc417809eec53d63e87f12262427fee06f0","amp;dn":"Red.Dirt.Rising.2011.720p.BRRip.x264.Feel-Free","amp;tr":["udp%3A%2F%2Ftracker.openbittorrent.com%3A80","udp%3A%2F%2Fopen.demonii.com%3A1337","udp%3A%2F%2Ftracker.coppersurfer.tk%3A6969","udp%3A%2F%2Fexodus.desync.com%3A6969"],"infoHash":"aa788fc417809eec53d63e87f12262427fee06f0","infoHashBuffer":{"type":"Buffer","data":[170,120,143,196,23,128,158,236,83,214,62,135,241,34,98,66,127,238,6,240]},"announce":[],"urlList":[]}}